<mxfile host="app.diagrams.net" modified="2024-06-27T06:53:16.676Z" agent="Mozilla/5.0 (Windows NT 10.0; Win64; x64) AppleWebKit/537.36 (KHTML, like Gecko) Chrome/126.0.0.0 Safari/537.36 Edg/126.0.0.0" etag="JSOZgSeK0P4bumFCHS3a" version="24.6.3" type="device">
  <diagram name="Page-1" id="2YBvvXClWsGukQMizWep">
    <mxGraphModel dx="1972" dy="645" grid="1" gridSize="10" guides="1" tooltips="1" connect="1" arrows="1" fold="1" page="1" pageScale="1" pageWidth="850" pageHeight="1100" math="0" shadow="0">
      <root>
        <mxCell id="0" />
        <mxCell id="1" parent="0" />
        <mxCell id="aM9ryv3xv72pqoxQDRHE-1" value="&lt;font style=&quot;font-size: 10px;&quot;&gt;Каталог продукции&lt;/font&gt;" style="shape=umlLifeline;perimeter=lifelinePerimeter;whiteSpace=wrap;html=1;container=0;dropTarget=0;collapsible=0;recursiveResize=0;outlineConnect=0;portConstraint=eastwest;newEdgeStyle={&quot;edgeStyle&quot;:&quot;elbowEdgeStyle&quot;,&quot;elbow&quot;:&quot;vertical&quot;,&quot;curved&quot;:0,&quot;rounded&quot;:0};" parent="1" vertex="1">
          <mxGeometry x="40" y="40" width="100" height="350" as="geometry" />
        </mxCell>
        <mxCell id="aM9ryv3xv72pqoxQDRHE-2" value="" style="html=1;points=[];perimeter=orthogonalPerimeter;outlineConnect=0;targetShapes=umlLifeline;portConstraint=eastwest;newEdgeStyle={&quot;edgeStyle&quot;:&quot;elbowEdgeStyle&quot;,&quot;elbow&quot;:&quot;vertical&quot;,&quot;curved&quot;:0,&quot;rounded&quot;:0};" parent="aM9ryv3xv72pqoxQDRHE-1" vertex="1">
          <mxGeometry x="45" y="70" width="10" height="250" as="geometry" />
        </mxCell>
        <mxCell id="aM9ryv3xv72pqoxQDRHE-5" value="" style="shape=umlLifeline;perimeter=lifelinePerimeter;whiteSpace=wrap;html=1;container=0;dropTarget=0;collapsible=0;recursiveResize=0;outlineConnect=0;portConstraint=eastwest;newEdgeStyle={&quot;edgeStyle&quot;:&quot;elbowEdgeStyle&quot;,&quot;elbow&quot;:&quot;vertical&quot;,&quot;curved&quot;:0,&quot;rounded&quot;:0};size=0;" parent="1" vertex="1">
          <mxGeometry x="220" y="40" width="100" height="350" as="geometry" />
        </mxCell>
        <mxCell id="aM9ryv3xv72pqoxQDRHE-6" value="" style="html=1;points=[];perimeter=orthogonalPerimeter;outlineConnect=0;targetShapes=umlLifeline;portConstraint=eastwest;newEdgeStyle={&quot;edgeStyle&quot;:&quot;elbowEdgeStyle&quot;,&quot;elbow&quot;:&quot;vertical&quot;,&quot;curved&quot;:0,&quot;rounded&quot;:0};" parent="aM9ryv3xv72pqoxQDRHE-5" vertex="1">
          <mxGeometry x="45" y="80" width="10" height="230" as="geometry" />
        </mxCell>
        <mxCell id="aM9ryv3xv72pqoxQDRHE-7" value="&lt;font style=&quot;font-size: 10px;&quot;&gt;4:Отправка запроса на бронь&lt;/font&gt;" style="html=1;verticalAlign=bottom;endArrow=block;edgeStyle=elbowEdgeStyle;elbow=vertical;curved=0;rounded=0;" parent="1" target="aM9ryv3xv72pqoxQDRHE-6" edge="1">
          <mxGeometry x="-0.0019" relative="1" as="geometry">
            <mxPoint x="90" y="230" as="sourcePoint" />
            <Array as="points">
              <mxPoint x="170" y="230" />
            </Array>
            <mxPoint x="260" y="230" as="targetPoint" />
            <mxPoint as="offset" />
          </mxGeometry>
        </mxCell>
        <mxCell id="aM9ryv3xv72pqoxQDRHE-9" value="&lt;font style=&quot;font-size: 10px;&quot;&gt;9:Подтверждает бронирование&lt;/font&gt;" style="html=1;verticalAlign=bottom;endArrow=block;edgeStyle=elbowEdgeStyle;elbow=vertical;curved=0;rounded=0;" parent="1" edge="1" target="aM9ryv3xv72pqoxQDRHE-2" source="aM9ryv3xv72pqoxQDRHE-6">
          <mxGeometry x="0.0039" relative="1" as="geometry">
            <mxPoint x="260.0000000000002" y="340" as="sourcePoint" />
            <Array as="points">
              <mxPoint x="185" y="340" />
            </Array>
            <mxPoint x="90.00000000000023" y="340" as="targetPoint" />
            <mxPoint as="offset" />
          </mxGeometry>
        </mxCell>
        <mxCell id="3Kc0W-IJfBmojR4VnYcj-1" value="&lt;font style=&quot;font-size: 10px;&quot;&gt;3:Отправка информации о продукте&lt;/font&gt;" style="html=1;verticalAlign=bottom;endArrow=block;edgeStyle=elbowEdgeStyle;elbow=horizontal;curved=0;rounded=0;" parent="1" edge="1">
          <mxGeometry x="0.0027" relative="1" as="geometry">
            <mxPoint x="85" y="214.67" as="sourcePoint" />
            <Array as="points">
              <mxPoint x="-20" y="214.67" />
            </Array>
            <mxPoint x="-120" y="214.67" as="targetPoint" />
            <mxPoint as="offset" />
          </mxGeometry>
        </mxCell>
        <mxCell id="3Kc0W-IJfBmojR4VnYcj-2" value="&lt;font style=&quot;font-size: 10px;&quot;&gt;Магазин&lt;/font&gt;" style="shape=umlLifeline;perimeter=lifelinePerimeter;whiteSpace=wrap;html=1;container=0;dropTarget=0;collapsible=0;recursiveResize=0;outlineConnect=0;portConstraint=eastwest;newEdgeStyle={&quot;edgeStyle&quot;:&quot;elbowEdgeStyle&quot;,&quot;elbow&quot;:&quot;vertical&quot;,&quot;curved&quot;:0,&quot;rounded&quot;:0};" parent="1" vertex="1">
          <mxGeometry x="375" y="40" width="100" height="350" as="geometry" />
        </mxCell>
        <mxCell id="3Kc0W-IJfBmojR4VnYcj-3" value="" style="html=1;points=[];perimeter=orthogonalPerimeter;outlineConnect=0;targetShapes=umlLifeline;portConstraint=eastwest;newEdgeStyle={&quot;edgeStyle&quot;:&quot;elbowEdgeStyle&quot;,&quot;elbow&quot;:&quot;vertical&quot;,&quot;curved&quot;:0,&quot;rounded&quot;:0};" parent="3Kc0W-IJfBmojR4VnYcj-2" vertex="1">
          <mxGeometry x="45" y="80" width="10" height="220" as="geometry" />
        </mxCell>
        <mxCell id="3Kc0W-IJfBmojR4VnYcj-4" value="&lt;font style=&quot;font-size: 10px;&quot;&gt;6:Подтверждает наличие&lt;/font&gt;" style="html=1;verticalAlign=bottom;endArrow=block;edgeStyle=elbowEdgeStyle;elbow=vertical;curved=0;rounded=0;" parent="1" edge="1">
          <mxGeometry x="0.0051" relative="1" as="geometry">
            <mxPoint x="420" y="260" as="sourcePoint" />
            <Array as="points">
              <mxPoint x="370" y="260" />
            </Array>
            <mxPoint x="275" y="260" as="targetPoint" />
            <mxPoint as="offset" />
          </mxGeometry>
        </mxCell>
        <mxCell id="3Kc0W-IJfBmojR4VnYcj-6" value="&lt;font style=&quot;font-size: 10px;&quot;&gt;5:Проверяет наличие товара&lt;/font&gt;" style="html=1;verticalAlign=bottom;endArrow=block;edgeStyle=elbowEdgeStyle;elbow=vertical;curved=0;rounded=0;" parent="1" edge="1">
          <mxGeometry relative="1" as="geometry">
            <mxPoint x="275" y="240.00000000000003" as="sourcePoint" />
            <Array as="points">
              <mxPoint x="370" y="240.00000000000003" />
            </Array>
            <mxPoint x="420" y="240.00000000000009" as="targetPoint" />
          </mxGeometry>
        </mxCell>
        <mxCell id="3Kc0W-IJfBmojR4VnYcj-10" value="&lt;font style=&quot;font-size: 10px;&quot;&gt;10:Отправляет подтверждение&lt;/font&gt;" style="html=1;verticalAlign=bottom;endArrow=block;edgeStyle=elbowEdgeStyle;elbow=vertical;curved=0;rounded=0;" parent="1" edge="1">
          <mxGeometry relative="1" as="geometry">
            <mxPoint x="85" y="350" as="sourcePoint" />
            <Array as="points">
              <mxPoint x="-40" y="352.5" />
            </Array>
            <mxPoint x="-120" y="352.5" as="targetPoint" />
            <mxPoint as="offset" />
          </mxGeometry>
        </mxCell>
        <mxCell id="3Kc0W-IJfBmojR4VnYcj-11" value="&lt;font style=&quot;font-size: 10px;&quot;&gt;8:Подтверждает оплату&lt;/font&gt;" style="html=1;verticalAlign=bottom;endArrow=block;edgeStyle=elbowEdgeStyle;elbow=vertical;curved=0;rounded=0;" parent="1" edge="1">
          <mxGeometry relative="1" as="geometry">
            <mxPoint x="420" y="320" as="sourcePoint" />
            <Array as="points">
              <mxPoint x="390" y="320" />
            </Array>
            <mxPoint x="275" y="320" as="targetPoint" />
          </mxGeometry>
        </mxCell>
        <mxCell id="3Kc0W-IJfBmojR4VnYcj-13" value="&lt;font style=&quot;font-size: 10px;&quot;&gt;7:Отправляет запрос на оплату&lt;/font&gt;" style="html=1;verticalAlign=bottom;endArrow=block;edgeStyle=elbowEdgeStyle;elbow=vertical;curved=0;rounded=0;" parent="1" edge="1">
          <mxGeometry x="0.1875" relative="1" as="geometry">
            <mxPoint x="275.0000000000002" y="260.00000000000006" as="sourcePoint" />
            <Array as="points">
              <mxPoint x="300" y="290" />
            </Array>
            <mxPoint x="420" y="290" as="targetPoint" />
            <mxPoint as="offset" />
          </mxGeometry>
        </mxCell>
        <mxCell id="JDOJuz-afI2EmaLXrTti-3" value="&lt;font style=&quot;font-size: 10px;&quot;&gt;1:Поиск продукта&lt;/font&gt;" style="html=1;verticalAlign=bottom;endArrow=block;edgeStyle=elbowEdgeStyle;elbow=vertical;curved=0;rounded=0;" edge="1" parent="1" target="aM9ryv3xv72pqoxQDRHE-2">
          <mxGeometry x="0.0112" relative="1" as="geometry">
            <mxPoint x="-129.99666666666673" y="160.0033333333334" as="sourcePoint" />
            <Array as="points" />
            <mxPoint x="80" y="160" as="targetPoint" />
            <mxPoint as="offset" />
          </mxGeometry>
        </mxCell>
        <mxCell id="JDOJuz-afI2EmaLXrTti-6" value="" style="shape=umlLifeline;perimeter=lifelinePerimeter;whiteSpace=wrap;html=1;container=0;dropTarget=0;collapsible=0;recursiveResize=0;outlineConnect=0;portConstraint=eastwest;newEdgeStyle={&quot;edgeStyle&quot;:&quot;elbowEdgeStyle&quot;,&quot;elbow&quot;:&quot;vertical&quot;,&quot;curved&quot;:0,&quot;rounded&quot;:0};size=0;" vertex="1" parent="1">
          <mxGeometry x="-175" y="100" width="100" height="300" as="geometry" />
        </mxCell>
        <mxCell id="JDOJuz-afI2EmaLXrTti-7" value="" style="html=1;points=[];perimeter=orthogonalPerimeter;outlineConnect=0;targetShapes=umlLifeline;portConstraint=eastwest;newEdgeStyle={&quot;edgeStyle&quot;:&quot;elbowEdgeStyle&quot;,&quot;elbow&quot;:&quot;vertical&quot;,&quot;curved&quot;:0,&quot;rounded&quot;:0};" vertex="1" parent="JDOJuz-afI2EmaLXrTti-6">
          <mxGeometry x="45" y="20" width="10" height="240" as="geometry" />
        </mxCell>
        <mxCell id="JDOJuz-afI2EmaLXrTti-11" value="&lt;font style=&quot;font-size: 10px;&quot;&gt;2:Товар не найден&lt;/font&gt;" style="html=1;verticalAlign=bottom;endArrow=block;edgeStyle=elbowEdgeStyle;elbow=horizontal;curved=0;rounded=0;dashed=1;dashPattern=8 8;" edge="1" parent="1" source="aM9ryv3xv72pqoxQDRHE-2" target="JDOJuz-afI2EmaLXrTti-7">
          <mxGeometry x="-0.0027" relative="1" as="geometry">
            <mxPoint x="60" y="190" as="sourcePoint" />
            <Array as="points">
              <mxPoint x="-15" y="190" />
            </Array>
            <mxPoint x="-115" y="190" as="targetPoint" />
            <mxPoint as="offset" />
          </mxGeometry>
        </mxCell>
        <mxCell id="JDOJuz-afI2EmaLXrTti-12" value="&lt;font style=&quot;font-size: 10px;&quot;&gt;Менеджер&lt;/font&gt;" style="shape=umlActor;verticalLabelPosition=bottom;verticalAlign=top;html=1;outlineConnect=0;" vertex="1" parent="1">
          <mxGeometry x="255" y="23.75" width="30" height="60" as="geometry" />
        </mxCell>
        <mxCell id="JDOJuz-afI2EmaLXrTti-13" value="&lt;font style=&quot;font-size: 10px;&quot;&gt;Посетитель интернет-магазина&lt;/font&gt;" style="shape=umlActor;verticalLabelPosition=bottom;verticalAlign=top;html=1;outlineConnect=0;" vertex="1" parent="1">
          <mxGeometry x="-140" y="20" width="30" height="60" as="geometry" />
        </mxCell>
      </root>
    </mxGraphModel>
  </diagram>
</mxfile>
